<svg xmlns="http://www.w3.org/2000/svg"
     viewBox="-400 0 3000 260"
     preserveAspectRatio="none">
  <defs>
    <linearGradient id="g" x1="0%" y1="0%" x2="100%" y2="0%">
      <stop offset="0%" stop-color="#ffb000"/>
      <stop offset="18%" stop-color="#ff4d8d"/>
      <stop offset="45%" stop-color="#7a4dff"/>
      <stop offset="70%" stop-color="#00b7c7"/>
      <stop offset="100%" stop-color="#90e8b0"/>
    </linearGradient>
  </defs>

  <g fill="none" stroke="url(#g)" stroke-linecap="round">
    <!-- light background set -->
    <g opacity="0.18" stroke-width="1.1">
      <path d="M-400 210 C 50 40 500 280 900 210 C 1300 60 1750 270 2150 210 C 2450 165 2650 235 3000 210"/>
      <path d="M-400 60  C 50 220 500 -10 900 60  C 1300 210 1750 0   2150 60  C 2450 110 2650 30  3000 60"/>
    </g>

    <!-- mid density set -->
    <g opacity="0.45" stroke-width="1.4">
      <path d="M-400 182 C 50 70 500 260 900 182 C 1300 80 1750 250 2150 182 C 2450 150 2650 220 3000 182"/>
      <path d="M-400 170 C 50 82 500 248 900 170 C 1300 92 1750 238 2150 170 C 2450 150 2650 208 3000 170"/>
      <path d="M-400 158 C 50 94 500 236 900 158 C 1300 104 1750 226 2150 158 C 2450 150 2650 196 3000 158"/>
      <path d="M-400 146 C 50 106 500 224 900 146 C 1300 116 1750 214 2150 146 C 2450 150 2650 184 3000 146"/>
      <path d="M-400 134 C 50 118 500 212 900 134 C 1300 128 1750 202 2150 134 C 2450 150 2650 172 3000 134"/>
      <path d="M-400 122 C 50 130 500 200 900 122 C 1300 140 1750 190 2150 122 C 2450 150 2650 160 3000 122"/>
      <path d="M-400 110 C 50 142 500 188 900 110 C 1300 152 1750 178 2150 110 C 2450 150 2650 148 3000 110"/>
    </g>

    <!-- strong foreground set -->
    <g opacity="0.75" stroke-width="1.8">
      <path d="M-400 154 C 50 78 500 242 900 154 C 1300 90 1750 230 2150 154 C 2450 150 2650 190 3000 154"/>
      <path d="M-400 144 C 50 90 500 230 900 144 C 1300 102 1750 218 2150 144 C 2450 150 2650 178 3000 144"/>
      <path d="M-400 134 C 50 102 500 218 900 134 C 1300 114 1750 206 2150 134 C 2450 150 2650 166 3000 134"/>
    </g>
  </g>
</svg>
